<svg xmlns="http://www.w3.org/2000/svg" fill="#FFFFFF" width="102" height="26"><rect id="backgroundrect" width="100%" height="100%" x="0" y="0" fill="none" stroke="none"/>
	
	
	
	
	
	
	
<g class="currentLayer"><title>Layer 1</title><path d="M27.870000000000005,25.237998962402344 V10.64099896240235 h-2.38 v-2.345 h2.38 v-0.806 c0,-2.38 0.525,-4.55 1.961,-5.915 c1.154,-1.12 2.6950000000000003,-1.5750000000000002 4.13,-1.5750000000000002 c1.085,0 2.03,0.24500000000000002 2.6260000000000003,0.48900000000000005 l-0.42100000000000004,2.3810000000000002 c-0.455,-0.21000000000000002 -1.085,-0.38500000000000006 -1.96,-0.38500000000000006 c-2.625,0 -3.291,2.31 -3.291,4.9 v0.91 h4.096 v2.345 h-4.096 V25.237998962402344 H27.870000000000005 z" id="svg_1" class=""/><path d="M37.774,13.581998962402338 c0,-1.995 -0.03400000000000001,-3.71 -0.14,-5.285 h2.6950000000000003 l0.10400000000000001,3.325 h0.14100000000000001 c0.77,-2.275 2.625,-3.7110000000000003 4.69,-3.7110000000000003 c0.35100000000000003,0 0.5950000000000001,0.035 0.8750000000000001,0.10500000000000001 v2.9050000000000002 c-0.31500000000000006,-0.07 -0.6300000000000001,-0.10500000000000001 -1.05,-0.10500000000000001 c-2.17,0 -3.7110000000000003,1.6460000000000001 -4.131,3.956 c-0.07,0.42000000000000004 -0.14,0.91 -0.14,1.435 v9.031 h-3.046 V13.581998962402338 z" id="svg_2" class=""/><path d="M52.78999999999999,3.5359989624023456 c0.035,1.05 -0.7340000000000001,1.8900000000000001 -1.96,1.8900000000000001 c-1.085,0 -1.854,-0.8400000000000001 -1.854,-1.8900000000000001 c0,-1.085 0.805,-1.9260000000000002 1.924,-1.9260000000000002 C52.05600000000001,1.6099989624023436 52.78999999999999,2.4509989624023376 52.78999999999999,3.5359989624023456 zM49.36,25.237998962402344 V8.296998962402341 h3.08 V25.237998962402344 H49.36 z" id="svg_3" class=""/><path d="M57.129999999999995,22.087998962402338 c0.91,0.5950000000000001 2.52,1.226 4.061,1.226 c2.24,0 3.289,-1.12 3.289,-2.521 c0,-1.471 -0.8750000000000001,-2.275 -3.15,-3.115 c-3.045,-1.085 -4.48,-2.766 -4.48,-4.796 c0,-2.73 2.206,-4.971 5.846,-4.971 c1.7160000000000002,0 3.221,0.49000000000000005 4.166,1.051 l-0.77,2.24 c-0.6660000000000001,-0.42000000000000004 -1.891,-0.98 -3.466,-0.98 c-1.82,0 -2.835,1.05 -2.835,2.311 c0,1.399 1.015,2.03 3.22,2.87 c2.94,1.12 4.446,2.59 4.446,5.11 c0,2.976 -2.311,5.075 -6.336,5.075 c-1.855,0 -3.5700000000000003,-0.455 -4.761,-1.154 L57.129999999999995,22.087998962402338 z" id="svg_4" class=""/><path d="M83.48500000000001,24.60799896240235 c-0.805,0.42000000000000004 -2.59,0.979 -4.865,0.979 c-5.111,0 -8.436,-3.465 -8.436,-8.646 c0,-5.216 3.5700000000000003,-8.996 9.101,-8.996 c1.82,0 3.431,0.455 4.271,0.8750000000000001 l-0.7000000000000001,2.3810000000000002 c-0.7350000000000001,-0.42000000000000004 -1.8900000000000001,-0.806 -3.5700000000000003,-0.806 c-3.886,0 -5.985,2.87 -5.985,6.406 c0,3.92 2.52,6.335 5.881,6.335 c1.75,0 2.904,-0.455 3.779,-0.8400000000000001 L83.48500000000001,24.60799896240235 z" id="svg_5" class=""/><path d="M102.21100000000001,16.62699896240234 c0,6.266 -4.341,8.996 -8.436,8.996 c-4.585,0 -8.121,-3.36 -8.121,-8.716 c0,-5.671 3.71,-8.996 8.401,-8.996 C98.92099999999999,7.910998962402346 102.21100000000001,11.446998962402347 102.21100000000001,16.62699896240234 zM88.77000000000001,16.801998962402337 c0,3.71 2.136,6.511 5.146,6.511 c2.94,0 5.146,-2.766 5.146,-6.581 c0,-2.87 -1.435,-6.511 -5.075,-6.511 S88.77000000000001,13.581998962402338 88.77000000000001,16.801998962402337 z" id="svg_6" class=""/><path d="M4,20.571998962402347 h2 v-12 h-2 V20.571998962402347 zM8,24.571998962402347 h2 v-20 h-2 V24.571998962402347 zM0,16.571998962402347 h2 v-4 h-2 V16.571998962402347 zM12,20.571998962402347 h2 v-12 h-2 V20.571998962402347 zM16,12.571998962402347 v4 h2 v-4 H16 z" id="svg_7" class=""/></g></svg>